<?xml version="1.0" encoding="utf-8"?>
<!-- Generator: Adobe Illustrator 24.0.1, SVG Export Plug-In . SVG Version: 6.00 Build 0)  -->
<svg version="1.1" id="Camada_1" xmlns="http://www.w3.org/2000/svg" xmlns:xlink="http://www.w3.org/1999/xlink" x="0px" y="0px"
	 viewBox="0 0 1100.1 704.2" style="enable-background:new 0 0 1100.1 704.2;" xml:space="preserve">
<style type="text/css">
	.st0{fill:#FCBE2E;}
	.st1{font-family:'Righteous-Regular';}
	.st2{font-size:231.12px;}
	.st3{fill:#FFFFFF;}
	.st4{font-family:'Anton-Regular';}
	.st5{font-size:115.56px;}
</style>
<title>Logo</title>
<text transform="matrix(1 0 0 1 262.8 378.68)" class="st0 st1 st2">JULIA</text>
<path class="st0" d="M339.8,483l-225.9,43L32.5,89.6l239.2,16.8l12,66.5h29.9l-17.1-94.4c-4.3-33.5-21-46.8-50.6-52.9L64.7,2.2
	C-6.8-4.2-6.4-1.7,6.9,78.2l90.8,513.1c11.1,48.5,102.6,3.2,149.8-6.7l93.2-25c35.2-7.3,38.7-33.3,31.2-66l-20.7-113.5h-30
	L339.8,483z M103.7,41.2c0,0,83.8,3.9,111.4,8.2c1.6,0.2,3,1,4,2.2c0.3,0.9,0.2,1.8-0.1,2.6c-1.5,1.6-6.8-0.1-9-0.5
	c-26-4.8-105.2-9.3-105.2-9.3l-12.3-2.6L103.7,41.2z M241.3,539.5c-9,1.3-16.5-4.7-16.5-13.3s7.5-16.4,16.5-17.1
	c8.6-0.7,15.4,5.3,15.4,13.5S250,538.3,241.3,539.5z"/>
<text transform="matrix(1 0 0 1 390.07 514.38)" class="st3 st4 st5">GIFTS</text>
</svg>
