<svg id="Camada_1" data-name="Camada 1" xmlns="http://www.w3.org/2000/svg" viewBox="0 0 1100.07 704.17"><defs><style>.cls-1{font-size:231.12px;font-family:Righteous-Regular, Righteous;}.cls-1,.cls-3{fill:#fcbe2e;}.cls-2,.cls-4{fill:#fff;}.cls-2{font-size:323.57px;}.cls-4{font-size:115.56px;font-family:Anton-Regular, Anton;}</style></defs><title>Logo</title><text class="cls-1" transform="translate(262.8 378.68)">JULIA<tspan class="cls-2" x="600.37" y="0"> </tspan></text><path class="cls-3" d="M519.76,632.05l-225.92,43L212.39,238.55l239.2,16.78,12,66.48h29.85L476.3,227.42c-4.28-33.49-21-46.8-50.57-52.91L244.61,151.22c-71.5-6.38-71.08-3.92-57.77,76l90.79,513.08c11.13,48.54,102.58,3.18,149.77-6.65l93.18-25c35.24-7.35,38.68-33.31,31.24-66L531.17,529.12h-30ZM283.6,190.24s83.8,3.9,111.4,8.16a6.09,6.09,0,0,1,4,2.16,3.54,3.54,0,0,1-.15,2.65c-1.53,1.65-6.77-.07-9-.48-26-4.82-105.21-9.26-105.21-9.26l-12.27-2.6ZM421.25,688.51c-8.95,1.3-16.45-4.65-16.45-13.35s7.5-16.38,16.45-17.12c8.64-.72,15.41,5.32,15.41,13.47S429.89,687.25,421.25,688.51Z" transform="translate(-179.93 -149)"/><text class="cls-4" transform="translate(390.07 514.38)">PRESENTES</text></svg>