<svg width="32px" height="32px" viewBox="0 0 35 34" fill="none" xmlns="http://www.w3.org/2000/svg">
    <path fill="#fff" fill-opacity="0.01" d="M4.204 4.2H29.83v25.6H4.204z"></path>
    <path fill-rule="evenodd" clip-rule="evenodd" d="M17.017 8.466a4.269 4.269 0 014.272 4.267A4.269 4.269 0 0117.017 17a4.269 4.269 0 01-4.27-4.267 4.269 4.269 0 014.27-4.267zm0 1.6a2.668 2.668 0 00-2.67 2.667 2.668 2.668 0 002.67 2.667 2.668 2.668 0 002.67-2.667 2.668 2.668 0 00-2.67-2.667zm0 8.534c1.478 0 3.53.48 5.175 1.24 2.07.955 3.368 2.246 3.368 3.826 0 1.031-.837 1.867-1.869 1.867H10.344a1.868 1.868 0 01-1.87-1.867c0-1.58 1.3-2.87 3.369-3.826 1.645-.76 3.696-1.24 5.174-1.24zm0 1.6c-1.251 0-3.077.435-4.502 1.093-1.67.77-2.438 1.614-2.438 2.373 0 .148.12.267.267.267H23.69c.148 0 .267-.12.267-.267 0-.76-.77-1.603-2.438-2.373-1.425-.658-3.251-1.093-4.503-1.093z" fill="#fff"></path>
    <ellipse cx="17.017" cy="17" rx="16.017" ry="16" stroke="#fff" stroke-width="2"></ellipse>
</svg>