<?xml version="1.0" standalone="no"?>
<!DOCTYPE svg PUBLIC "-//W3C//DTD SVG 20010904//EN"
 "http://www.w3.org/TR/2001/REC-SVG-20010904/DTD/svg10.dtd">
<svg version="1.0" xmlns="http://www.w3.org/2000/svg"
 width="512.000000pt" height="512.000000pt" viewBox="0 0 512.000000 512.000000"
 preserveAspectRatio="xMidYMid meet">

<g transform="translate(0.000000,512.000000) scale(0.100000,-0.100000)"
fill="#000000" stroke="none">
<path d="M2360 4889 c-437 -38 -848 -196 -1210 -465 -133 -99 -353 -318 -453
-452 -248 -332 -401 -708 -458 -1132 -17 -122 -17 -438 0 -560 100 -741 504
-1358 1132 -1731 768 -456 1739 -430 2482 65 981 654 1325 1938 798 2986 -433
863 -1338 1372 -2291 1289z m380 -139 c514 -44 983 -258 1349 -614 197 -193
326 -372 447 -621 106 -221 170 -429 205 -675 16 -113 17 -442 0 -555 -59
-414 -221 -793 -470 -1102 -36 -46 -69 -83 -72 -83 -3 0 -22 42 -43 93 -177
449 -583 825 -1059 982 l-128 42 68 39 c93 53 257 217 312 311 100 169 136
318 128 522 -6 161 -24 231 -96 376 -114 228 -314 394 -566 471 -83 25 -104
28 -255 28 -151 0 -172 -3 -255 -28 -179 -54 -348 -166 -462 -306 -62 -75
-144 -234 -174 -335 -30 -101 -37 -313 -14 -426 52 -258 207 -479 430 -613
l65 -39 -127 -42 c-476 -157 -882 -533 -1059 -982 -21 -51 -40 -93 -43 -93 -3
0 -36 37 -72 83 -380 472 -552 1102 -464 1692 94 628 443 1175 970 1521 412
270 902 396 1385 354z m-22 -936 c298 -61 527 -283 603 -584 31 -121 24 -310
-15 -425 -85 -251 -276 -435 -531 -511 -76 -22 -109 -26 -215 -27 -107 0 -138
4 -215 27 -273 82 -476 291 -545 561 -27 107 -27 273 0 381 105 410 506 663
918 578z m157 -1722 c285 -64 533 -188 737 -369 200 -178 361 -417 445 -661
l28 -84 -54 -49 c-140 -129 -328 -255 -524 -349 -467 -225 -982 -276 -1488
-149 -296 74 -602 228 -848 428 -148 121 -141 106 -107 207 177 518 649 923
1201 1028 127 24 130 24 330 21 144 -3 212 -8 280 -23z"/>
</g>
</svg>
